HIERARCHY
ROOT Bip001_Pelvis
{
  OFFSET 34.4345 95.6767 -26.8758
  CHANNELS 6 Xposition Yposition Zposition Zrotation Xrotation Yrotation
  JOINT Bip001_Spine
  {
    OFFSET 1.4188e-005 10.2191 -0.0116013
    CHANNELS 3 Zrotation Xrotation Yrotation
    JOINT Bip001_L_Thigh
    {
      OFFSET 11.0458 -10.2192 0.0116197
      CHANNELS 3 Zrotation Xrotation Yrotation
      JOINT Bip001_L_Calf
      {
        OFFSET -0.707118 -44.0221 0.360014
        CHANNELS 3 Zrotation Xrotation Yrotation
        JOINT Bip001_L_Foot
        {
          OFFSET -0.651902 -40.5938 -3.56146
          CHANNELS 3 Zrotation Xrotation Yrotation
          JOINT Bip001_L_Toe0
          {
            OFFSET 0.0530839 -10.2181 13.1504
            CHANNELS 3 Zrotation Xrotation Yrotation
            End Site
            {
              OFFSET -1.02532e-005 0 7.55606
            }
          }
        }
      }
    }
    JOINT Bip001_R_Thigh
    {
      OFFSET -11.0458 -10.2191 0.0115893
      CHANNELS 3 Zrotation Xrotation Yrotation
      JOINT Bip001_R_Calf
      {
        OFFSET 0.706994 -44.0221 0.35984
        CHANNELS 3 Zrotation Xrotation Yrotation
        JOINT Bip001_R_Foot
        {
          OFFSET 0.651786 -40.5938 -3.5613
          CHANNELS 3 Zrotation Xrotation Yrotation
          JOINT Bip001_R_Toe0
          {
            OFFSET -0.0531479 -10.2181 13.1504
            CHANNELS 3 Zrotation Xrotation Yrotation
            End Site
            {
              OFFSET -1.02894e-005 0 7.55606
            }
          }
        }
      }
    }
    JOINT Bip001_Spine1
    {
      OFFSET 1.87041e-005 14.5736 1.08638
      CHANNELS 3 Zrotation Xrotation Yrotation
      JOINT Bip001_Spine2
      {
        OFFSET 2.24614e-005 14.5058 -1.69078
        CHANNELS 3 Zrotation Xrotation Yrotation
        JOINT Bip001_Neck
        {
          OFFSET 2.20278e-005 15.3945 -0.489414
          CHANNELS 3 Zrotation Xrotation Yrotation
          JOINT Bip001_L_Clavicle
          {
            OFFSET 6.06036 -0.000579998 0.00836775
            CHANNELS 3 Zrotation Xrotation Yrotation
            JOINT Bip001_L_UpperArm
            {
              OFFSET 11.5509 -0.0600302 0.00193952
              CHANNELS 3 Zrotation Xrotation Yrotation
              JOINT Bip001_L_Forearm
              {
                OFFSET 25.9523 0.0806089 -2.15551
                CHANNELS 3 Zrotation Xrotation Yrotation
                JOINT Bip001_L_Hand
                {
                  OFFSET 32.2475 0.153767 1.63968
                  CHANNELS 3 Zrotation Xrotation Yrotation
                  JOINT Bip001_L_Finger0
                  {
                    OFFSET 6.04639 -2.20976 5.90322
                    CHANNELS 3 Zrotation Xrotation Yrotation
                    End Site
                    {
                      OFFSET 4.22375 -1.43895 0.606485
                    }
                  }
                  JOINT Bip001_L_Finger1
                  {
                    OFFSET 11.0826 -0.704819 -0.198153
                    CHANNELS 3 Zrotation Xrotation Yrotation
                    End Site
                    {
                      OFFSET 6.20027 -0.397518 -0.0787166
                    }
                  }
                }
              }
            }
          }
          JOINT Bip001_R_Clavicle
          {
            OFFSET -6.06037 -0.000563197 0.00835105
            CHANNELS 3 Zrotation Xrotation Yrotation
            JOINT Bip001_R_UpperArm
            {
              OFFSET -11.5509 -0.0599978 0.00190698
              CHANNELS 3 Zrotation Xrotation Yrotation
              JOINT Bip001_R_Forearm
              {
                OFFSET -25.9523 0.0806822 -2.15589
                CHANNELS 3 Zrotation Xrotation Yrotation
                JOINT Bip001_R_Hand
                {
                  OFFSET -32.2475 0.153859 1.63989
                  CHANNELS 3 Zrotation Xrotation Yrotation
                  JOINT Bip001_R_Finger0
                  {
                    OFFSET -6.04641 -2.20976 5.90317
                    CHANNELS 3 Zrotation Xrotation Yrotation
                    End Site
                    {
                      OFFSET -4.22376 -1.43895 0.60647
                    }
                  }
                  JOINT Bip001_R_Finger1
                  {
                    OFFSET -11.0826 -0.704794 -0.198182
                    CHANNELS 3 Zrotation Xrotation Yrotation
                    End Site
                    {
                      OFFSET -6.20028 -0.397504 -0.0787333
                    }
                  }
                }
              }
            }
          }
          JOINT Bip001_Head
          {
            OFFSET 1.09673e-005 11.2744 2.05948
            CHANNELS 3 Zrotation Xrotation Yrotation
            End Site
            {
              OFFSET 2.89576e-005 20.8808 -2.77728e-005
            }
          }
        }
      }
    }
  }
}
MOTION
Frames:	5
Frame Time:	0.04
33.92 95.91 -28.6588 1.2511 0.775237 -0.233329 -0.511406 1.90387 0.472588 3.54458 -3.02834 7.99457 0.0925873 5.89461 -7.06479 2.68828 -3.70375 -0.0387793 0.774293 -4.13368 -0.269844 -4.73738 -5.04701 -1.35394 0.486677 11.8342 0.302077 -5.2253 -9.91089 2.87461 2.24242 -7.59578 2.29705 -1.06434 3.80324 0.972538 -1.0643 3.80324 0.972069 2.75014 -8.85059 -2.88534 -26.8841 9.19612 1.46064 -56.4449 40.3816 1.27285 15.135 7.16676 -19.3693 9.49286 1.04481 -6.08399 0 0 -0 0 0 -1.59028e-015 21.5363 17.0575 20.9235 50.0747 2.43693 0.578598 -0.422399 51.8868 9.52503 -16.1838 0.946151 4.08628 -1.10348e-032 7.95139e-016 7.95139e-016 -3.18055e-015 -7.95139e-016 7.95139e-016 -2.44243 -5.74839 -1.75802 
33.925 95.9159 -28.6557 1.25105 0.732591 -0.46741 -0.511006 1.91152 0.47259 3.46003 -2.89006 8.23788 0.257836 5.76689 -7.01792 2.44733 -3.80181 -0.0387836 0.789515 -4.04965 -0.269816 -4.81667 -5.03578 -1.44996 0.559429 11.7827 0.340157 -5.13063 -9.92584 3.13472 2.23273 -7.54073 2.2735 -1.03594 3.81936 0.961751 -1.0349 3.81936 0.962207 2.90576 -8.61286 -2.81177 -26.93 9.00783 1.26441 -56.4728 40.6518 0.670779 15.0844 7.69972 -18.5858 9.49105 0.94357 -6.08862 -6.36111e-015 -6.36111e-015 -0 -6.36111e-015 -3.18056e-015 1.59028e-015 21.5638 16.6594 20.3407 50.8886 2.45015 1.08545 1.04457 54.2367 8.20374 -16.6938 0.882983 4.16252 -6.36111e-015 0 3.97569e-016 0 0 -0 -2.61079 -5.96236 -1.62376 
33.9193 95.9486 -28.664 1.26107 0.700705 -0.560488 -0.511714 1.92449 0.445708 3.42818 -2.65234 5.84671 0.0610044 5.29515 -4.50207 2.27202 -3.57741 -0.0387738 0.750508 -3.99507 -0.245585 -4.84651 -4.98982 -1.4934 0.588752 11.665 0.296102 -5.03549 -9.84098 3.31328 2.19604 -7.43768 2.25214 -1.03811 3.84111 0.909615 -1.03863 3.84112 0.909439 3.08931 -8.46654 -2.71274 -26.9873 8.91257 1.07929 -56.3938 40.9213 0.066329 14.969 8.07022 -17.7707 9.35215 0.843915 -6.11713 -3.18055e-015 3.18055e-015 -3.18055e-015 -3.18055e-015 0 -1.59028e-015 21.5096 16.3082 19.6707 51.7686 2.76455 1.40219 0.749088 54.7365 9.07275 -17.079 0.541397 5.19562 3.18055e-015 -7.95139e-016 -3.97569e-016 6.36111e-015 -7.95139e-016 -3.97569e-016 -2.69702 -6.14403 -1.47391 
33.9347 95.975 -28.6526 1.32258 0.643933 -0.64295 -0.52591 1.92646 0.42318 3.31995 -2.35103 4.438 0.0324817 4.78321 -2.93335 2.02745 -3.41538 -0.0387671 0.727157 -3.88925 -0.237837 -4.91045 -4.92765 -1.61634 0.577609 11.6007 0.303674 -4.95821 -9.82027 3.50135 2.1613 -7.34133 2.23403 -1.07603 3.86079 0.86508 -1.07536 3.86079 0.865096 3.34451 -8.25069 -2.62869 -27.1409 8.76114 0.822801 -56.2495 40.969 -0.232775 14.683 8.18638 -17.4042 9.35081 0.789086 -6.13273 3.18055e-015 0 1.59028e-015 3.18055e-015 6.36111e-015 1.59028e-015 21.4509 15.9156 19.0231 52.0217 3.49407 1.56968 -0.161002 53.692 10.3653 -17.0066 -1.5571 8.52861 -6.36111e-015 3.18055e-015 1.59028e-015 -6.36111e-015 1.59028e-015 1.98785e-015 -2.78539 -6.43098 -1.32125 
33.9871 95.9784 -28.6308 1.34529 0.620165 -0.652092 -0.522916 1.92645 0.383667 3.21293 -2.23355 4.32018 0.0570581 4.59587 -2.86441 2.34669 -3.13994 -0.0490538 0.768909 -4.1093 -0.270374 -4.98999 -4.9008 -1.76154 0.579374 11.6156 0.366408 -4.92936 -9.84707 3.61762 2.15061 -7.29325 2.22382 -1.05943 3.86044 0.785646 -1.05958 3.86045 0.785645 3.69477 -8.08889 -2.53887 -27.5819 8.62552 0.700109 -55.9676 40.9945 -0.37576 14.3195 8.01943 -17.2599 9.28756 0.685112 -6.21542 -8.82781e-032 3.18055e-015 1.59028e-015 3.18055e-015 3.18056e-015 1.59028e-015 20.9891 15.4797 18.3657 52.0345 4.92493 1.61631 -0.637748 52.4844 10.8265 -17.3764 -2.9261 9.72147 -1.98626e-031 -4.77083e-015 -2.38542e-015 3.18055e-015 -3.18056e-015 -1.59028e-015 -3.09644 -6.60156 -1.10638 
